<mxfile host="app.diagrams.net" modified="2022-08-26T10:42:26.298Z" agent="5.0 (Macintosh; Intel Mac OS X 10_15_7) AppleWebKit/537.36 (KHTML, like Gecko) Chrome/104.0.0.0 Safari/537.36" etag="VTqOeuZnfqGTcTmQXmZc" version="20.2.7" type="github">
  <diagram id="TIB-DYiaMEs1MIUE_1CS" name="ページ1">
    <mxGraphModel dx="2102" dy="1364" grid="1" gridSize="10" guides="1" tooltips="1" connect="1" arrows="1" fold="1" page="1" pageScale="1" pageWidth="827" pageHeight="1169" math="0" shadow="0">
      <root>
        <mxCell id="0" />
        <mxCell id="1" parent="0" />
        <mxCell id="cbYvcafBNdG7YoX3gKfs-1" value="AWS Cloud" style="points=[[0,0],[0.25,0],[0.5,0],[0.75,0],[1,0],[1,0.25],[1,0.5],[1,0.75],[1,1],[0.75,1],[0.5,1],[0.25,1],[0,1],[0,0.75],[0,0.5],[0,0.25]];outlineConnect=0;gradientColor=none;html=1;whiteSpace=wrap;fontSize=12;fontStyle=0;container=1;pointerEvents=0;collapsible=0;recursiveResize=0;shape=mxgraph.aws4.group;grIcon=mxgraph.aws4.group_aws_cloud_alt;strokeColor=#232F3E;fillColor=none;verticalAlign=top;align=left;spacingLeft=30;fontColor=#232F3E;dashed=0;" parent="1" vertex="1">
          <mxGeometry x="20" y="150" width="780" height="950" as="geometry" />
        </mxCell>
        <mxCell id="cbYvcafBNdG7YoX3gKfs-2" value="Region" style="points=[[0,0],[0.25,0],[0.5,0],[0.75,0],[1,0],[1,0.25],[1,0.5],[1,0.75],[1,1],[0.75,1],[0.5,1],[0.25,1],[0,1],[0,0.75],[0,0.5],[0,0.25]];outlineConnect=0;gradientColor=none;html=1;whiteSpace=wrap;fontSize=12;fontStyle=0;container=1;pointerEvents=0;collapsible=0;recursiveResize=0;shape=mxgraph.aws4.group;grIcon=mxgraph.aws4.group_region;strokeColor=#147EBA;fillColor=none;verticalAlign=top;align=left;spacingLeft=30;fontColor=#147EBA;dashed=1;" parent="cbYvcafBNdG7YoX3gKfs-1" vertex="1">
          <mxGeometry x="10" y="80" width="760" height="860" as="geometry" />
        </mxCell>
        <mxCell id="cbYvcafBNdG7YoX3gKfs-47" value="" style="sketch=0;points=[[0,0,0],[0.25,0,0],[0.5,0,0],[0.75,0,0],[1,0,0],[0,1,0],[0.25,1,0],[0.5,1,0],[0.75,1,0],[1,1,0],[0,0.25,0],[0,0.5,0],[0,0.75,0],[1,0.25,0],[1,0.5,0],[1,0.75,0]];outlineConnect=0;fontColor=#232F3E;gradientColor=#60A337;gradientDirection=north;fillColor=#277116;strokeColor=#ffffff;dashed=0;verticalLabelPosition=bottom;verticalAlign=top;align=center;html=1;fontSize=12;fontStyle=0;aspect=fixed;shape=mxgraph.aws4.resourceIcon;resIcon=mxgraph.aws4.s3;" parent="cbYvcafBNdG7YoX3gKfs-2" vertex="1">
          <mxGeometry x="80" y="30" width="78" height="78" as="geometry" />
        </mxCell>
        <mxCell id="cbYvcafBNdG7YoX3gKfs-8" value="Public subnet&lt;br&gt;(10.0.0.0/24)" style="points=[[0,0],[0.25,0],[0.5,0],[0.75,0],[1,0],[1,0.25],[1,0.5],[1,0.75],[1,1],[0.75,1],[0.5,1],[0.25,1],[0,1],[0,0.75],[0,0.5],[0,0.25]];outlineConnect=0;gradientColor=none;html=1;whiteSpace=wrap;fontSize=12;fontStyle=0;container=1;pointerEvents=0;collapsible=0;recursiveResize=0;shape=mxgraph.aws4.group;grIcon=mxgraph.aws4.group_security_group;grStroke=0;strokeColor=#248814;fillColor=#E9F3E6;verticalAlign=top;align=left;spacingLeft=30;fontColor=#248814;dashed=0;" parent="1" vertex="1">
          <mxGeometry x="50" y="560" width="280" height="200" as="geometry" />
        </mxCell>
        <mxCell id="cbYvcafBNdG7YoX3gKfs-15" value="" style="sketch=0;points=[[0,0,0],[0.25,0,0],[0.5,0,0],[0.75,0,0],[1,0,0],[0,1,0],[0.25,1,0],[0.5,1,0],[0.75,1,0],[1,1,0],[0,0.25,0],[0,0.5,0],[0,0.75,0],[1,0.25,0],[1,0.5,0],[1,0.75,0]];outlineConnect=0;fontColor=#232F3E;gradientColor=#F78E04;gradientDirection=north;fillColor=#D05C17;strokeColor=#ffffff;dashed=0;verticalLabelPosition=bottom;verticalAlign=top;align=center;html=1;fontSize=12;fontStyle=0;aspect=fixed;shape=mxgraph.aws4.resourceIcon;resIcon=mxgraph.aws4.ec2;" parent="cbYvcafBNdG7YoX3gKfs-8" vertex="1">
          <mxGeometry x="98" y="110" width="78" height="78" as="geometry" />
        </mxCell>
        <mxCell id="cbYvcafBNdG7YoX3gKfs-30" value="Security group&#xa;(SSH/HTTP)" style="fillColor=none;strokeColor=#DD3522;verticalAlign=top;fontStyle=0;fontColor=#DD3522;" parent="cbYvcafBNdG7YoX3gKfs-8" vertex="1">
          <mxGeometry x="40" y="53" width="200" height="147" as="geometry" />
        </mxCell>
        <mxCell id="cbYvcafBNdG7YoX3gKfs-21" value="Public subnet&lt;br&gt;(10.0.1.0/24)" style="points=[[0,0],[0.25,0],[0.5,0],[0.75,0],[1,0],[1,0.25],[1,0.5],[1,0.75],[1,1],[0.75,1],[0.5,1],[0.25,1],[0,1],[0,0.75],[0,0.5],[0,0.25]];outlineConnect=0;gradientColor=none;html=1;whiteSpace=wrap;fontSize=12;fontStyle=0;container=1;pointerEvents=0;collapsible=0;recursiveResize=0;shape=mxgraph.aws4.group;grIcon=mxgraph.aws4.group_security_group;grStroke=0;strokeColor=#248814;fillColor=#E9F3E6;verticalAlign=top;align=left;spacingLeft=30;fontColor=#248814;dashed=0;" parent="1" vertex="1">
          <mxGeometry x="490" y="560" width="280" height="200" as="geometry" />
        </mxCell>
        <mxCell id="cbYvcafBNdG7YoX3gKfs-22" value="" style="sketch=0;points=[[0,0,0],[0.25,0,0],[0.5,0,0],[0.75,0,0],[1,0,0],[0,1,0],[0.25,1,0],[0.5,1,0],[0.75,1,0],[1,1,0],[0,0.25,0],[0,0.5,0],[0,0.75,0],[1,0.25,0],[1,0.5,0],[1,0.75,0]];outlineConnect=0;fontColor=#232F3E;gradientColor=#F78E04;gradientDirection=north;fillColor=#D05C17;strokeColor=#ffffff;dashed=0;verticalLabelPosition=bottom;verticalAlign=top;align=center;html=1;fontSize=12;fontStyle=0;aspect=fixed;shape=mxgraph.aws4.resourceIcon;resIcon=mxgraph.aws4.ec2;" parent="cbYvcafBNdG7YoX3gKfs-21" vertex="1">
          <mxGeometry x="101" y="105" width="78" height="78" as="geometry" />
        </mxCell>
        <mxCell id="cbYvcafBNdG7YoX3gKfs-32" value="Security group&#xa;(SSH/HTTP)" style="fillColor=none;strokeColor=#DD3522;verticalAlign=top;fontStyle=0;fontColor=#DD3522;" parent="cbYvcafBNdG7YoX3gKfs-21" vertex="1">
          <mxGeometry x="40" y="53" width="200" height="147" as="geometry" />
        </mxCell>
        <mxCell id="cbYvcafBNdG7YoX3gKfs-10" value="Private subnet&lt;br&gt;(10.0.2.0/24)" style="points=[[0,0],[0.25,0],[0.5,0],[0.75,0],[1,0],[1,0.25],[1,0.5],[1,0.75],[1,1],[0.75,1],[0.5,1],[0.25,1],[0,1],[0,0.75],[0,0.5],[0,0.25]];outlineConnect=0;gradientColor=none;html=1;whiteSpace=wrap;fontSize=12;fontStyle=0;container=1;pointerEvents=0;collapsible=0;recursiveResize=0;shape=mxgraph.aws4.group;grIcon=mxgraph.aws4.group_security_group;grStroke=0;strokeColor=#147EBA;fillColor=#E6F2F8;verticalAlign=top;align=left;spacingLeft=30;fontColor=#147EBA;dashed=0;" parent="1" vertex="1">
          <mxGeometry x="50" y="840" width="280" height="207" as="geometry" />
        </mxCell>
        <mxCell id="cbYvcafBNdG7YoX3gKfs-17" value="" style="sketch=0;points=[[0,0,0],[0.25,0,0],[0.5,0,0],[0.75,0,0],[1,0,0],[0,1,0],[0.25,1,0],[0.5,1,0],[0.75,1,0],[1,1,0],[0,0.25,0],[0,0.5,0],[0,0.75,0],[1,0.25,0],[1,0.5,0],[1,0.75,0]];outlineConnect=0;fontColor=#232F3E;gradientColor=#4D72F3;gradientDirection=north;fillColor=#3334B9;strokeColor=#ffffff;dashed=0;verticalLabelPosition=bottom;verticalAlign=top;align=center;html=1;fontSize=12;fontStyle=0;aspect=fixed;shape=mxgraph.aws4.resourceIcon;resIcon=mxgraph.aws4.rds;" parent="cbYvcafBNdG7YoX3gKfs-10" vertex="1">
          <mxGeometry x="98" y="110" width="78" height="78" as="geometry" />
        </mxCell>
        <mxCell id="cbYvcafBNdG7YoX3gKfs-31" value="Security group&#xa;(MYSQL/Aurora)" style="fillColor=none;strokeColor=#DD3522;verticalAlign=top;fontStyle=0;fontColor=#DD3522;" parent="cbYvcafBNdG7YoX3gKfs-10" vertex="1">
          <mxGeometry x="40" y="60" width="200" height="147" as="geometry" />
        </mxCell>
        <mxCell id="cbYvcafBNdG7YoX3gKfs-23" value="Private subnet&lt;br&gt;(10.0.3.0/24)" style="points=[[0,0],[0.25,0],[0.5,0],[0.75,0],[1,0],[1,0.25],[1,0.5],[1,0.75],[1,1],[0.75,1],[0.5,1],[0.25,1],[0,1],[0,0.75],[0,0.5],[0,0.25]];outlineConnect=0;gradientColor=none;html=1;whiteSpace=wrap;fontSize=12;fontStyle=0;container=1;pointerEvents=0;collapsible=0;recursiveResize=0;shape=mxgraph.aws4.group;grIcon=mxgraph.aws4.group_security_group;grStroke=0;strokeColor=#147EBA;fillColor=#E6F2F8;verticalAlign=top;align=left;spacingLeft=30;fontColor=#147EBA;dashed=0;" parent="1" vertex="1">
          <mxGeometry x="490" y="840" width="280" height="200" as="geometry" />
        </mxCell>
        <mxCell id="cbYvcafBNdG7YoX3gKfs-24" value="" style="sketch=0;points=[[0,0,0],[0.25,0,0],[0.5,0,0],[0.75,0,0],[1,0,0],[0,1,0],[0.25,1,0],[0.5,1,0],[0.75,1,0],[1,1,0],[0,0.25,0],[0,0.5,0],[0,0.75,0],[1,0.25,0],[1,0.5,0],[1,0.75,0]];outlineConnect=0;fontColor=#232F3E;gradientColor=#4D72F3;gradientDirection=north;fillColor=#3334B9;strokeColor=#ffffff;dashed=0;verticalLabelPosition=bottom;verticalAlign=top;align=center;html=1;fontSize=12;fontStyle=0;aspect=fixed;shape=mxgraph.aws4.resourceIcon;resIcon=mxgraph.aws4.rds;" parent="cbYvcafBNdG7YoX3gKfs-23" vertex="1">
          <mxGeometry x="101" y="110" width="78" height="78" as="geometry" />
        </mxCell>
        <mxCell id="cbYvcafBNdG7YoX3gKfs-33" value="Security group&#xa;(MYSQL/Auroa)" style="fillColor=none;strokeColor=#DD3522;verticalAlign=top;fontStyle=0;fontColor=#DD3522;" parent="cbYvcafBNdG7YoX3gKfs-23" vertex="1">
          <mxGeometry x="40" y="53" width="200" height="147" as="geometry" />
        </mxCell>
        <mxCell id="cbYvcafBNdG7YoX3gKfs-36" style="edgeStyle=orthogonalEdgeStyle;rounded=0;orthogonalLoop=1;jettySize=auto;html=1;" parent="1" source="cbYvcafBNdG7YoX3gKfs-27" target="cbYvcafBNdG7YoX3gKfs-35" edge="1">
          <mxGeometry relative="1" as="geometry" />
        </mxCell>
        <mxCell id="cbYvcafBNdG7YoX3gKfs-27" value="" style="sketch=0;outlineConnect=0;fontColor=#232F3E;gradientColor=none;fillColor=#4D27AA;strokeColor=none;dashed=0;verticalLabelPosition=bottom;verticalAlign=top;align=center;html=1;fontSize=12;fontStyle=0;aspect=fixed;pointerEvents=1;shape=mxgraph.aws4.internet_gateway;" parent="1" vertex="1">
          <mxGeometry x="370" y="320" width="78" height="78" as="geometry" />
        </mxCell>
        <mxCell id="cbYvcafBNdG7YoX3gKfs-37" style="edgeStyle=orthogonalEdgeStyle;rounded=0;orthogonalLoop=1;jettySize=auto;html=1;" parent="1" source="cbYvcafBNdG7YoX3gKfs-35" target="cbYvcafBNdG7YoX3gKfs-32" edge="1">
          <mxGeometry relative="1" as="geometry" />
        </mxCell>
        <mxCell id="cbYvcafBNdG7YoX3gKfs-38" style="edgeStyle=orthogonalEdgeStyle;rounded=0;orthogonalLoop=1;jettySize=auto;html=1;" parent="1" source="cbYvcafBNdG7YoX3gKfs-35" target="cbYvcafBNdG7YoX3gKfs-30" edge="1">
          <mxGeometry relative="1" as="geometry" />
        </mxCell>
        <mxCell id="cbYvcafBNdG7YoX3gKfs-35" value="" style="sketch=0;outlineConnect=0;fontColor=#232F3E;gradientColor=none;fillColor=#4D27AA;strokeColor=none;dashed=0;verticalLabelPosition=bottom;verticalAlign=top;align=center;html=1;fontSize=12;fontStyle=0;aspect=fixed;pointerEvents=1;shape=mxgraph.aws4.application_load_balancer;" parent="1" vertex="1">
          <mxGeometry x="370" y="460" width="78" height="78" as="geometry" />
        </mxCell>
        <mxCell id="cbYvcafBNdG7YoX3gKfs-34" value="Security group&#xa;(HTTP)" style="fillColor=none;strokeColor=#DD3522;verticalAlign=top;fontStyle=0;fontColor=#DD3522;" parent="1" vertex="1">
          <mxGeometry x="320" y="410" width="186" height="138" as="geometry" />
        </mxCell>
        <mxCell id="cbYvcafBNdG7YoX3gKfs-41" style="edgeStyle=orthogonalEdgeStyle;rounded=0;orthogonalLoop=1;jettySize=auto;html=1;" parent="1" source="cbYvcafBNdG7YoX3gKfs-30" target="cbYvcafBNdG7YoX3gKfs-31" edge="1">
          <mxGeometry relative="1" as="geometry" />
        </mxCell>
        <mxCell id="cbYvcafBNdG7YoX3gKfs-44" style="edgeStyle=orthogonalEdgeStyle;rounded=0;orthogonalLoop=1;jettySize=auto;html=1;" parent="1" source="cbYvcafBNdG7YoX3gKfs-32" target="cbYvcafBNdG7YoX3gKfs-33" edge="1">
          <mxGeometry relative="1" as="geometry" />
        </mxCell>
        <mxCell id="cbYvcafBNdG7YoX3gKfs-3" value="Availability Zone" style="fillColor=none;strokeColor=#147EBA;dashed=1;verticalAlign=top;fontStyle=0;fontColor=#147EBA;" parent="1" vertex="1">
          <mxGeometry x="50" y="470" width="300" height="600" as="geometry" />
        </mxCell>
        <mxCell id="cbYvcafBNdG7YoX3gKfs-46" value="Availability Zone" style="fillColor=none;strokeColor=#147EBA;dashed=1;verticalAlign=top;fontStyle=0;fontColor=#147EBA;" parent="1" vertex="1">
          <mxGeometry x="470" y="470" width="300" height="600" as="geometry" />
        </mxCell>
        <mxCell id="cbYvcafBNdG7YoX3gKfs-5" value="VPC&lt;br&gt;&lt;font color=&quot;#000000&quot;&gt;(10.0.0.0/16)&lt;/font&gt;" style="points=[[0,0],[0.25,0],[0.5,0],[0.75,0],[1,0],[1,0.25],[1,0.5],[1,0.75],[1,1],[0.75,1],[0.5,1],[0.25,1],[0,1],[0,0.75],[0,0.5],[0,0.25]];outlineConnect=0;gradientColor=none;html=1;whiteSpace=wrap;fontSize=12;fontStyle=0;container=1;pointerEvents=0;collapsible=0;recursiveResize=0;shape=mxgraph.aws4.group;grIcon=mxgraph.aws4.group_vpc;strokeColor=#248814;fillColor=none;verticalAlign=top;align=left;spacingLeft=30;fontColor=#AAB7B8;dashed=0;" parent="1" vertex="1">
          <mxGeometry x="40" y="360" width="740" height="720" as="geometry" />
        </mxCell>
        <mxCell id="cbYvcafBNdG7YoX3gKfs-53" value="&lt;font style=&quot;font-size: 17px;&quot; color=&quot;#ff3333&quot;&gt;単一AZ構成であり、不要の為グレーアウト&lt;/font&gt;" style="text;html=1;strokeColor=none;fillColor=none;align=center;verticalAlign=middle;whiteSpace=wrap;rounded=0;fontColor=#000000;opacity=50;" parent="cbYvcafBNdG7YoX3gKfs-5" vertex="1">
          <mxGeometry x="480" y="40" width="231" height="50" as="geometry" />
        </mxCell>
        <mxCell id="cbYvcafBNdG7YoX3gKfs-49" style="edgeStyle=orthogonalEdgeStyle;rounded=0;orthogonalLoop=1;jettySize=auto;html=1;" parent="1" source="cbYvcafBNdG7YoX3gKfs-48" target="cbYvcafBNdG7YoX3gKfs-27" edge="1">
          <mxGeometry relative="1" as="geometry" />
        </mxCell>
        <mxCell id="cbYvcafBNdG7YoX3gKfs-48" value="" style="sketch=0;outlineConnect=0;fontColor=#232F3E;gradientColor=none;fillColor=#232F3D;strokeColor=none;dashed=0;verticalLabelPosition=bottom;verticalAlign=top;align=center;html=1;fontSize=12;fontStyle=0;aspect=fixed;pointerEvents=1;shape=mxgraph.aws4.internet_alt2;" parent="1" vertex="1">
          <mxGeometry x="370" y="40" width="78" height="78" as="geometry" />
        </mxCell>
        <mxCell id="cbYvcafBNdG7YoX3gKfs-52" value="" style="rounded=0;whiteSpace=wrap;html=1;fontColor=#000000;strokeColor=#ABABAB;fillColor=#ABABAB;opacity=50;" parent="1" vertex="1">
          <mxGeometry x="440" y="450" width="350" height="620" as="geometry" />
        </mxCell>
        <mxCell id="dJrhg-nVG-pPCHkHPiDs-9" value="" style="endArrow=classic;startArrow=classic;html=1;rounded=0;fontSize=17;fontColor=#FF3333;exitX=0.5;exitY=0;exitDx=0;exitDy=0;exitPerimeter=0;" edge="1" parent="1" source="cbYvcafBNdG7YoX3gKfs-47" target="cbYvcafBNdG7YoX3gKfs-48">
          <mxGeometry width="50" height="50" relative="1" as="geometry">
            <mxPoint x="400" y="440" as="sourcePoint" />
            <mxPoint x="450" y="390" as="targetPoint" />
            <Array as="points">
              <mxPoint x="150" y="80" />
            </Array>
          </mxGeometry>
        </mxCell>
      </root>
    </mxGraphModel>
  </diagram>
</mxfile>
